<svg width="16" height="16" viewBox="0 0 16 16" fill="none" xmlns="http://www.w3.org/2000/svg">
<path d="M6.25123 5.6529C4.32643 6.7649 7.26243 12.2705 9.36963 11.0545L11.3232 14.4369C10.4336 14.9505 9.68323 15.2737 8.65283 14.6849C5.79203 13.0497 2.64323 7.5985 2.73283 4.3473C2.76323 3.2177 3.43043 2.7745 4.29923 2.2721C4.67203 2.9185 5.87683 5.0049 6.25123 5.6529ZM7.05763 5.5617C6.84963 5.6817 6.58243 5.6113 6.46083 5.4017L4.62083 2.2129C4.50083 2.0049 4.57123 1.7377 4.78083 1.6161L5.74883 1.0577C5.95683 0.937704 6.22403 1.0081 6.34563 1.2177L8.18723 4.4065C8.30723 4.6145 8.23683 4.8817 8.02723 5.0017L7.05763 5.5617ZM12.088 14.2737C11.88 14.3937 11.6128 14.3233 11.4912 14.1137L9.65123 10.9249C9.53123 10.7169 9.60163 10.4497 9.81123 10.3281L10.7792 9.7697C10.9872 9.6497 11.2544 9.7201 11.376 9.9297L13.2176 13.1185C13.3376 13.3265 13.2672 13.5937 13.0576 13.7153L12.088 14.2737Z" fill="white"/>
</svg>
