<svg width="16" height="16" viewBox="0 0 16 16" fill="none" xmlns="http://www.w3.org/2000/svg">
<g clip-path="url(#clip0_96_4592)">
<path d="M15.2432 7.6432C15.192 8.9024 14.8144 9.992 14.1104 10.912C13.4064 11.832 12.3552 12.2896 10.9584 12.2896C10.4944 12.2896 10.0928 12.16 9.75517 11.8992C9.41757 11.6384 9.17917 11.2704 9.04157 10.7952C8.80637 11.2816 8.51037 11.6464 8.15357 11.8912C7.79517 12.1344 7.37597 12.256 6.89597 12.256C6.04157 12.256 5.38877 11.9168 4.93757 11.2384C4.48637 10.56 4.31997 9.6592 4.43997 8.5376C4.58877 7.1008 5.00797 5.9504 5.69757 5.0848C6.38717 4.2208 7.22557 3.7872 8.20957 3.7872C8.90237 3.7872 9.45917 3.8624 9.87997 4.0112C10.3008 4.16 10.7632 4.3888 11.2672 4.6992L11.2416 4.7328H11.2848L10.8464 9.5936C10.8176 10.0912 10.8512 10.4336 10.9456 10.6208C11.04 10.8064 11.168 10.8992 11.328 10.8992C11.9696 10.8992 12.4832 10.592 12.8704 9.976C13.256 9.36 13.472 8.584 13.5184 7.6448C13.6096 5.704 13.2304 4.1904 12.376 3.1056C11.5216 2.0192 10.2048 1.4768 8.42397 1.4768C6.69437 1.4768 5.31997 2.0608 4.30077 3.2288C3.28157 4.3968 2.72957 5.9888 2.64317 8.0048C2.54717 9.968 2.95997 11.52 3.88477 12.6592C4.80957 13.7984 6.13597 14.368 7.86557 14.368C8.34557 14.368 8.84637 14.3152 9.36477 14.2096C9.88317 14.104 10.3312 13.9696 10.7088 13.8096L11.0352 15.2352C10.6512 15.4752 10.1632 15.6624 9.57117 15.7984C8.97757 15.9328 8.39837 16 7.83197 16C5.51837 16 3.73757 15.288 2.48957 13.8624C1.24157 12.4368 0.66557 10.4848 0.76317 8.0048C0.86557 5.5488 1.60477 3.6 2.97917 2.16C4.35357 0.72 6.17917 0 8.45757 0C10.696 0 12.4096 0.6816 13.5984 2.0448C14.7872 3.4064 15.3344 5.2736 15.2432 7.6432ZM6.56797 8.5376C6.51677 9.224 6.56637 9.744 6.71837 10.096C6.87037 10.448 7.11837 10.624 7.46077 10.624C7.76957 10.624 8.04637 10.5376 8.28957 10.3664C8.53277 10.1952 8.74557 9.8768 8.92957 9.4128L9.27357 5.5312C9.14717 5.5024 9.02397 5.4784 8.90397 5.4576C8.78397 5.4368 8.66397 5.4272 8.54397 5.4272C7.94877 5.4272 7.49437 5.6864 7.18237 6.2048C6.87037 6.7232 6.66557 7.5008 6.56797 8.5376Z" fill="white"/>
</g>
<defs>
<clipPath id="clip0_96_4592">
<rect width="16" height="16" fill="white"/>
</clipPath>
</defs>
</svg>
